#!OML:ASF Y:\EmotionMaleHayes\Project 1\Capture day 1\Session 1\Male1.ASF
:FULLY-SPECIFIED
:DEGREES
748
root 28.6713 16.6032 -1.22128 246.045 91.5152 249.006
lowerback 6.3612 -0.500404 -2.69037
upperback 7.67447 -0.531338 3.45559
thorax 4.48715 -0.373066 5.1427
lowerneck -22.6176 1.65539 3.45683
upperneck 18.8456 -0.555652 7.79105
head 9.77682 1.009 2.11026
rclavicle -5.1684e-015 9.54166e-015
rhumerus -24.5542 -2.17624 -81.3574
rradius 27.3846
rwrist 1.07819
rhand -9.21984 -34.6401
rfingers 7.12502
rthumb 16.7348 -63.9388
lclavicle -5.1684e-015 9.54166e-015
lhumerus -27.2792 -27.0113 102.203
lradius 23.5672
lwrist -12.5567
lhand -8.71172 -24.1625
lfingers 7.12502
lthumb 17.2239 5.09419
rfemur -12.9696 0.347799 19.0144
rtibia 24.403
rfoot -14.2212 -8.46175
rtoes 17.5119
lfemur 9.98442 1.81975 -20.2576
ltibia 51.2123
lfoot 3.43833 -2.80991
ltoes -5.77965
749
root 28.7982 16.617 -1.2079 245.363 91.4686 248.442
lowerback 6.39649 -0.476355 -2.70782
upperback 7.73069 -0.496899 3.45327
thorax 4.52394 -0.356827 5.15025
lowerneck -22.5637 1.60667 3.28133
upperneck 18.662 -0.686491 8.45575
head 9.71463 1.01338 2.35093
rclavicle 7.55382e-015 -4.13472e-014
rhumerus -24.5409 -1.70049 -81.6162
rradius 28.1464
rwrist 0.389597
rhand -9.26207 -34.9529
rfingers 7.12502
rthumb 16.6942 -64.255
lclavicle 7.55382e-015 -4.13472e-014
lhumerus -27.5145 -27.9827 102.349
lradius 23.8055
lwrist -12.2155
lhand -8.91321 -23.8203
lfingers 7.12502
lthumb 17.03 5.45319
rfemur -12.0741 0.142113 19.0996
rtibia 23.9826
rfoot -14.4577 -8.23734
rtoes 16.7721
lfemur 9.06301 2.45917 -19.7988
ltibia 52.731
lfoot 2.23092 -2.76106
ltoes -10.269
750
root 28.9234 16.6301 -1.19621 238.978 91.1704 242.198
lowerback 6.53094 -0.446251 -2.36609
upperback 7.75817 -0.443196 3.49018
thorax 4.46548 -0.310236 4.99413
lowerneck -22.7724 1.59615 3.33069
upperneck 18.7863 -0.811702 8.80076
head 9.80695 1.01477 2.45514
rclavicle 4.37326e-015 3.49861e-014
rhumerus -24.3816 -1.37024 -81.8724
rradius 28.6352
rwrist 0.0321615
rhand -9.46195 -34.9271
rfingers 7.12502
rthumb 16.5017 -64.2454
lclavicle 4.37326e-015 3.49861e-014
lhumerus -27.7101 -28.6464 102.369
lradius 24.0986
lwrist -11.4947
lhand -9.35967 -23.3438
lfingers 7.12502
lthumb 16.6002 5.96628
rfemur -11.1367 0.000223956 19.5344
rtibia 23.5021
rfoot -14.7193 -8.06127
rtoes 17.1101
lfemur 8.14274 3.20889 -19.0233
ltibia 54.2379
lfoot 0.837914 -2.40082
ltoes -15.4114
751
root 29.0413 16.6481 -1.17822 211.737 90.6982 215.107
lowerback 6.64611 -0.418708 -1.77604
upperback 7.84663 -0.380663 3.61553
thorax 4.48001 -0.248813 4.79086
lowerneck -22.9281 1.54682 3.31464
upperneck 18.7515 -0.952377 9.13831
head 9.83371 0.995531 2.56002
rclavicle 4.77083e-015 5.56597e-015
rhumerus -23.9216 -0.933963 -82.1555
rradius 28.681
rwrist -0.349836
rhand -10.1126 -34.3249
rfingers 7.12502
rthumb 15.8752 -63.6941
lclavicle 4.77083e-015 5.56597e-015
lhumerus -27.6422 -29.0803 102.208
lradius 24.3044
lwrist -10.4632
lhand -9.74587 -22.8937
lfingers 7.12502
lthumb 16.2284 6.44704
rfemur -10.2078 0.155527 20.4085
rtibia 22.9973
rfoot -15.0046 -8.13531
rtoes 18.2963
lfemur 7.16845 4.05596 -17.7861
ltibia 55.7604
lfoot -0.146948 -1.69157
ltoes -18.9113
752
root 29.162 16.6656 -1.15984 161.022 90.51 164.541
lowerback 6.6825 -0.413424 -1.32123
upperback 7.95581 -0.351611 3.72508
thorax 4.56761 -0.21174 4.64922
lowerneck -22.9297 1.43925 3.18312
upperneck 18.5187 -1.13123 9.59281
head 9.76595 0.953038 2.71138
rclavicle 4.77083e-015 -3.57812e-014
rhumerus -23.4396 -0.529015 -82.4
rradius 28.6667
rwrist -0.639862
rhand -10.5317 -33.7295
rfingers 7.12502
rthumb 15.4716 -63.1304
lclavicle 4.77083e-015 -3.57812e-014
lhumerus -27.429 -29.2335 101.899
lradius 24.3344
lwrist -9.90837
lhand -10.6238 -22.8291
lfingers 7.12502
lthumb 15.3828 6.57863
rfemur -9.24749 0.096936 21.128
rtibia 22.4359
rfoot -15.1854 -8.1181
rtoes 18.6565
lfemur 6.21555 4.6376 -16.7316
ltibia 57.0274
lfoot -1.09041 -0.864729
ltoes -18.5693
753
root 29.2872 16.681 -1.14048 125.456 90.6737 129.091
lowerback 6.61431 -0.4051 -1.10065
upperback 8.03413 -0.330856 3.81607
thorax 4.68563 -0.192205 4.62094
lowerneck -22.7492 1.40273 3.16614
upperneck 18.2349 -1.1971 9.89447
head 9.64142 0.944574 2.80091
rclavicle 8.74653e-015 1.43125e-014
rhumerus -23.4984 -0.177981 -82.6148
rradius 29.5935
rwrist -0.756302
rhand -10.0392 -34.4946
rfingers 7.12502
rthumb 15.9459 -63.8582
lclavicle 8.74653e-015 1.43125e-014
lhumerus -27.071 -28.6369 101.369
lradius 24.366
lwrist -9.30013
lhand -10.936 -23.0751
lfingers 7.12502
lthumb 15.0821 6.35549
rfemur -8.34353 0.0105048 21.6649
rtibia 21.9821
rfoot -15.4372 -7.98804
rtoes 18.8024
lfemur 5.28908 5.06987 -15.9234
ltibia 57.9935
lfoot -1.75411 0.0847155
ltoes -17.623
754
root 29.409 16.6967 -1.11859 108.225 91.04 111.952
lowerback 6.54841 -0.351214 -0.781469
upperback 8.15048 -0.244864 3.90507
thorax 4.8362 -0.133861 4.53402
lowerneck -22.9792 1.36327 3.1585
upperneck 18.1623 -1.30233 10.1113
head 9.66608 0.926575 2.86685
rclavicle -2.38542e-015 -5.00937e-014
rhumerus -23.1963 0.401814 -82.8807
rradius 30.0239
rwrist -1.25161
rhand -9.74402 -35.47
rfingers 7.12502
rthumb 16.2301 -64.8107
lclavicle -2.38542e-015 -5.00937e-014
lhumerus -26.6124 -28.2461 100.839
lradius 24.3696
lwrist -8.7366
lhand -11.4645 -23.4083
lfingers 7.12502
lthumb 14.573 6.05978
rfemur -7.47858 0.0952941 22.3182
rtibia 21.5625
rfoot -15.7936 -7.98383
rtoes 18.9257
lfemur 4.27753 5.56604 -15.0321
ltibia 58.8995
lfoot -2.42523 0.999558
ltoes -18.8989
755
root 29.5257 16.7144 -1.09865 102.804 91.3406 106.623
lowerback 6.5565 -0.287063 -0.583315
upperback 8.18071 -0.151048 3.942
thorax 4.85404 -0.0760065 4.45903
lowerneck -22.9143 1.31394 3.16939
upperneck 18.0621 -1.39478 10.2965
head 9.62721 0.903659 2.91376
rclavicle 5.1684e-015 1.43125e-014
rhumerus -22.8853 0.969124 -83.1902
rradius 30.1292
rwrist -1.46157
rhand -11.0077 -34.9256
rfingers 7.12502
rthumb 15.0131 -64.3613
lclavicle 5.1684e-015 1.43125e-014
lhumerus -26.3111 -27.8931 100.333
lradius 24.3867
lwrist -8.17789
lhand -11.9921 -23.773
lfingers 7.12502
lthumb 14.0646 5.7311
rfemur -6.63029 0.14666 22.8028
rtibia 21.0842
rfoot -15.9497 -8.2081
rtoes 19.0555
lfemur 3.17188 5.93681 -14.3295
ltibia 59.7497
lfoot -3.14557 1.82329
ltoes -16.7787
756
root 29.6377 16.7347 -1.07748 107.013 91.2849 110.897
lowerback 6.62179 -0.160949 -0.826593
upperback 8.18607 0.0109112 3.85837
thorax 4.81068 -0.00583025 4.5044
lowerneck -22.8806 1.27622 3.25387
upperneck 17.9732 -1.48737 10.4305
head 9.5974 0.881044 2.9314
rclavicle 6.16232e-015 1.59028e-015
rhumerus -22.5759 1.33707 -83.4965
rradius 30.2105
rwrist -1.29525
rhand -11.3886 -35.1041
rfingers 7.12502
rthumb 14.6461 -64.5669
lclavicle 6.16232e-015 1.59028e-015
lhumerus -25.9399 -27.3103 99.693
lradius 24.3874
lwrist -7.86043
lhand -12.6812 -24.3767
lfingers 7.12502
lthumb 13.4005 5.17229
rfemur -5.87262 0.265141 22.7888
rtibia 20.6165
rfoot -15.9623 -8.50917
rtoes 19.4918
lfemur 2.04654 6.22387 -14.1389
ltibia 60.4008
lfoot -3.76108 2.54841
ltoes -10.9461
757
root 29.7467 16.7542 -1.05716 108.643 91.4304 112.506
lowerback 6.61354 -0.0471051 -0.838962
upperback 8.23964 0.164329 3.81789
thorax 4.859 0.0712585 4.46596
lowerneck -23.3685 1.2611 3.46463
upperneck 18.1924 -1.62731 10.3914
head 9.76929 0.851917 2.87897
rclavicle -5.96354e-015 -4.77083e-015
rhumerus -22.2194 1.71475 -83.7842
rradius 30.5137
rwrist -1.39782
rhand -11.4093 -35.1889
rfingers 7.12502
rthumb 14.6262 -64.6532
lclavicle -5.96354e-015 -4.77083e-015
lhumerus -25.347 -26.1124 98.7843
lradius 24.4448
lwrist -8.39267
lhand -13.2129 -25.0492
lfingers 7.12502
lthumb 12.888 4.5329
rfemur -5.25065 0.32288 23.0242
rtibia 20.2415
rfoot -16.2809 -8.27832
rtoes 19.4227
lfemur 0.788313 6.61612 -13.7336
ltibia 61.0515
lfoot -4.50627 2.99819
ltoes -7.44067
758
root 29.8543 16.7737 -1.04008 107.37 91.8816 111.167
lowerback 6.55244 0.046869 -0.490141
upperback 8.18751 0.297211 3.85742
thorax 4.82485 0.155907 4.30588
lowerneck -23.3358 1.16383 3.55995
upperneck 18.2472 -1.79717 10.4074
head 9.79142 0.786498 2.84512
rclavicle -1.07344e-014 -2.14687e-014
rhumerus -22.1599 2.18553 -84.0642
rradius 31.0639
rwrist -1.78741
rhand -11.2631 -35.0456
rfingers 7.12502
rthumb 14.7671 -64.4995
lclavicle -1.07344e-014 -2.14687e-014
lhumerus -24.9928 -24.7496 97.9719
lradius 24.5327
lwrist -9.28314
lhand -13.4668 -25.6012
lfingers 7.12502
lthumb 12.6431 3.99613
rfemur -4.71662 0.350504 23.6411
rtibia 19.9547
rfoot -16.5869 -7.85444
rtoes 18.2741
lfemur -0.592442 7.07503 -12.9931
ltibia 61.7087
lfoot -5.25276 3.19494
ltoes -7.01748
759
root 29.9644 16.7937 -1.02524 106.53 92.1399 110.302
lowerback 6.55057 0.22602 -0.19704
upperback 8.21261 0.547316 3.84637
thorax 4.83304 0.298502 4.12265
lowerneck -23.3906 0.867544 3.10127
upperneck 17.9467 -2.13355 10.9211
head 9.72249 0.650967 3.04609
rclavicle 2.0276e-014 5.24792e-014
rhumerus -21.972 2.38219 -84.2154
rradius 31.5556
rwrist -2.03359
rhand -11.1359 -35.1128
rfingers 7.12502
rthumb 14.8895 -64.5578
lclavicle 2.0276e-014 5.24792e-014
lhumerus -24.4234 -24.0592 97.3474
lradius 24.5024
lwrist -9.53758
lhand -13.6466 -26.0222
lfingers 7.12502
lthumb 12.4698 3.5858
rfemur -4.03905 0.34299 24.0094
rtibia 19.4963
rfoot -16.6284 -7.82214
rtoes 16.4564
lfemur -1.88412 7.39603 -12.5266
ltibia 62.119
lfoot -5.96987 3.41765
ltoes -7.64544
760
root 30.074 16.8116 -1.01401 103.513 92.4378 107.256
lowerback 6.52764 0.219021 0.0211192
upperback 8.19298 0.544171 3.8351
thorax 4.82564 0.309167 3.98726
lowerneck -23.1528 0.869881 3.04869
upperneck 17.6539 -2.1115 11.1674
head 9.58154 0.668597 3.13322
rclavicle 5.96354e-016 1.27222e-014
rhumerus -21.7837 3.06685 -84.5876
rradius 31.9077
rwrist -1.98637
rhand -11.124 -35.2395
rfingers 7.12502
rthumb 14.901 -64.6835
lclavicle 5.96354e-016 1.27222e-014
lhumerus -23.9617 -22.7856 96.5486
lradius 24.5107
lwrist -9.65255
lhand -13.977 -26.5169
lfingers 7.12502
lthumb 12.1513 3.1102
rfemur -3.31321 0.140641 24.4029
rtibia 18.9376
rfoot -16.7734 -7.78395
rtoes 15.5522
lfemur -3.17201 7.63925 -12.0253
ltibia 62.3722
lfoot -6.73001 3.55696
ltoes -8.24535
